<svg id="Group_108" data-name="Group 108" xmlns="http://www.w3.org/2000/svg" width="182.908" height="171.341" viewBox="0 0 182.908 171.341">
  <path id="Path_15" data-name="Path 15" d="M37.118,45.021c-.03,0-.061-.03-.091-.03A6.268,6.268,0,0,0,35.021,43.9l-.7-.213a.112.112,0,0,1-.091-.03.23.23,0,0,0-.122-.03h0a.03.03,0,0,0-.03.03,14.723,14.723,0,0,1-.091-1.611,16.19,16.19,0,0,0,6.048-5.076,6.41,6.41,0,0,0,.547-2.4h.061c.547-.03,2.188-2.127,3.039-3.434a7.809,7.809,0,0,0,.517-6.109c-.4-1-1.064-.851-1.611-.456a13.992,13.992,0,0,0,.942-5.015,12.844,12.844,0,0,0-.547-3.769.106.106,0,0,0,.061-.03c.213-.4.851.729.851.729a4.477,4.477,0,0,0-.365-1.793,2.881,2.881,0,0,0-1.4-1.52l.213-.213c.213-.213.942.213.942.213a4.585,4.585,0,0,0-.821-1.185,2.544,2.544,0,0,0-2.158-1.094s.4-2.948-1.155-4.832c0,0,.334,1.094-.213,1.55,0,0-.638-2.644-1.824-3.465,0,0,.486,1.307,0,1.884,0,0-.76-3.282-2.766-4.073,0,0,1.307,2.675,0,3.191,0,0-.274-4.5-4.5-4.893,0,0,1.55,2.31,1.064,3.1,0,0-2.523-4.893-6.626-2.675,0,0,2.462.486,2.371,2.006,0,0-3.1-2.1-5.288-.4,0,0,3.708,1.185,3.556,2.583,0,0-3.556-1.489-5.744.638,0,0,2.462-.122,2.675,1.337,0,0-3.5-.3-4.772,1.884a2.3,2.3,0,0,1,1.732.7s-2.675,1.307-2.887,3.009c0,0,1.094-.79,1.672,0a.662.662,0,0,0,.274.213,13.259,13.259,0,0,0-1.945,6.93,14.442,14.442,0,0,0,.729,4.437c-.486-.182-.973-.091-1.307.7a7.887,7.887,0,0,0,.608,6.352c.851,1.307,2.492,3.313,3.161,3.586A6.172,6.172,0,0,0,19.673,37a16.116,16.116,0,0,0,5.683,4.893c-.03.547-.061,1.155-.122,1.763a7.409,7.409,0,0,0-2.918,1.368,4.462,4.462,0,0,0-.577.152c-.243.061-1.459.3-2.978.638l-.729.152c-.851.182-1.763.4-2.614.608l-.547.122h0c-1.094.274-2.036.547-2.583.729a9.674,9.674,0,0,0-1.246.76c-.061.061-.152.091-.213.152a7.67,7.67,0,0,0-1.489,1.489c-1.824,2.31-3.829,6.808-4.5,15.561-.608,7.872-3.5,26.5-4.164,33.341a3.34,3.34,0,0,0,.486.182L.89,100.549a1.2,1.2,0,0,0,.213.152,24.922,24.922,0,0,0-.76,5.41,11.64,11.64,0,0,0,1.276,3.343c.365.881,2.127,2.219,2.553,2.675a1.3,1.3,0,0,0,1.094.334c.425.547,1.428.365,1.428.365.274.4,1.52,1.337,2.067,1.033.517-.3-.425-2.431-.881-3.313s-1-5.805-.76-5.683a21.034,21.034,0,0,1,1.672,2.158c.425.547,2.188,1.094,1.55-.061a30.886,30.886,0,0,1-1.672-4.194l-.365-.912h.152l.274-1.611h.517s2.249-16.655,3.8-27.11l.091.091c.152,2.34.243,4.589.182,6.079-.243,4.164-1.7,21.852-1.7,21.852s1.368.608,3.222,1.246c.365,10.455.881,23.828,1.459,33.28,1.064,17.749,1.276,29.481,1.276,29.481a.235.235,0,0,1,.091.03c-.334,1-1.611,3.252-6.656,4.954,0,0-.821,1.033.942,1.216a20.6,20.6,0,0,0,7.142-.881c2.857-.76,3.769-1.216,5.045-1.489a22.962,22.962,0,0,0-.456-4.194,1.48,1.48,0,0,0,.213-.091c.122-2.006.213-3.981.334-5.987.274-4.711.577-9.422.851-14.1.365-5.531.729-11.033,1.125-16.564.334-4.437.669-8.875,1.155-13.312.182-1.763.213-3.617,1.216-5.2a2.211,2.211,0,0,1,1.854-1.216,1.571,1.571,0,0,1,1.125.669,5.558,5.558,0,0,1,.638,1.185,80.505,80.505,0,0,1,2.735,9.6c.881,3.374,1.7,6.778,2.462,10.182a80.208,80.208,0,0,1,1.459,7.993c.912,7.811,4.863,26.776,4.984,27.414A20.928,20.928,0,0,0,43.9,169.9c1.307.091,2.249.4,5.2.79a21.9,21.9,0,0,0,7.173-.091c1.7-.4.76-1.337.76-1.337-4.863-.942-6.565-2.8-7.142-3.8.091-.03.152-.03.243-.061,0,0-3.556-52.063-4.316-63.4,1.246-.456,2.067-.851,2.067-.851s-1.459-17.689-1.7-21.852a57.857,57.857,0,0,1,.213-6.534c1.58,10.425,3.86,27.475,3.86,27.475h.517l.274,1.611h.152a5.7,5.7,0,0,0-.365.912,32.564,32.564,0,0,1-1.672,4.194c-.638,1.155,1.125.608,1.55.061a21.034,21.034,0,0,1,1.672-2.158c.243-.122-.3,4.832-.76,5.683-.456.881-1.4,3.009-.881,3.313s1.793-.638,2.067-1.033c0,0,.973.182,1.428-.365a1.3,1.3,0,0,0,1.094-.334c.425-.456,2.188-1.793,2.553-2.675a11.29,11.29,0,0,0,1.276-3.343c.182-1.094-.425-3.708-.76-5.41a1.2,1.2,0,0,0,.213-.152l-.274-1.641c.3-.122.486-.182.486-.182-.669-6.838-3.586-25.469-4.164-33.341-.669-8.753-2.675-13.251-4.5-15.561a7.669,7.669,0,0,0-1.489-1.489.923.923,0,0,0-.213-.152,9.675,9.675,0,0,0-1.246-.76c-1.854-.7-7.841-1.945-9.209-2.249m2.887-17.324c.03-.03.061-.091.091-.122L40.887,28ZM25.174,43.623Z" transform="translate(28.595 -0.101)" fill="rgba(6,178,187,0.6)"/>
  <path id="Path_17" data-name="Path 17" d="M42.988,26.317c1.7.34,10.48.587,13.324.9s5.07-.247,7.945.278,3.493,1.082,4.081.927,2.628-2.968,3.122-3.339,2.319-.526,1.793,1.422-1.948,3.864-1.113,5.286a66,66,0,0,1,3.833,7.42c.247,1.051.031,4.823.556,6.368a81.43,81.43,0,0,0,3.37,7.791c1.113,2.164,2.009,3.71,3.03,4.3s1.082.989,1.144,1.268.031.742.185.866a21.2,21.2,0,0,1,1.979,1.917c.433.556.216,1.206.4,1.484a2.013,2.013,0,0,1,.278,1.608,17.647,17.647,0,0,0-.062,3.215c.031,1.3.526,4.977.587,5.534a7.437,7.437,0,0,0,.371,2.009,2.242,2.242,0,0,1-.155,1.731c-.216.464-.433.618-.464.866s-.309,1.02-.958,1.082a1.965,1.965,0,0,1-1.082-.185s-.247.371-1.546.216a1.785,1.785,0,0,1-1.422-2.628c.649-1.082,1.391-1.113,1.762-1.731a6.209,6.209,0,0,0,.4-2.721c-.062-.495-.124-.989-.216-.989s.031,1.669-.464,2.195a2.259,2.259,0,0,1-1.422.8c-.433.031-.958-.34-1.144-.34s-.958.371-1.546-.124-.526-2.319.309-2.69,1.329-.309,1.577-.526a7.075,7.075,0,0,0,.34-2.751,4.468,4.468,0,0,0-.34-2.257,4.937,4.937,0,0,1-.495-1.484c-.093-.247.031-.649-.247-1.02a15.745,15.745,0,0,0-2.473-2.566c-1.453-1.237-2.782-2.5-4.112-3.586s-4.452-3.246-5.657-4.792-2.813-4.668-4.946-6.183-4.173-2.35-5.6-2.257A117.412,117.412,0,0,0,45.306,46.69c-5.1,1.453-9.12,3.339-10.851,3.462s-2.226,0-2.411.093.093.9-.216,1.329a14.654,14.654,0,0,0-1.268,6.059c.093,2.566-.185,5.1-.124,6.461s-.031,3.277.062,4.452c.093,1.206.34,2.411.031,2.751s-.9-.247-1.144.031a14.472,14.472,0,0,0-1.36,4.39c-.34,1.979-.773,2.968-2.226,3.03s-1.824-.278-1.824-.278a2.472,2.472,0,0,1-1.669.124c-1.113-.216-.927-1.267-.9-1.669s.185-.958.093-.989c-.093-.062-.371.155-.773-.278-.4-.4.155-1.515.556-1.948.371-.433.309-.773,1.268-.8s1.082-.093,1.546-.866a15.767,15.767,0,0,0,1.175-4.05c.062-.742-.4-2.133-.433-3.246s-.124-3.03-.155-4.885-.309-3.617-.618-6.307-1.113-6.77-1.855-7.821-1.948-1.917-2.257-3.122A20.8,20.8,0,0,1,19,36.7a43.962,43.962,0,0,0,.124-5.843c-.216-1.267-1.453-4.39-2.133-6.43S15.1,18.8,14.762,18.619s-1.329.278-2.04.4a8.824,8.824,0,0,0-2.164.464,20.219,20.219,0,0,1-3.091.526,6.193,6.193,0,0,1-3.091.185,5.154,5.154,0,0,1-2.257-1.237A9.754,9.754,0,0,1,.387,17.352c-.309-.464-.526-.742.371-1.206s2.195-1.608,3.184-2.1a7.1,7.1,0,0,0,2.566-1.7c.371-.618.464-1.268.742-1.731A10.36,10.36,0,0,1,9.476,8.7c.773-.495,1.948-1.731,2.442-2.009.464-.278,1.082-.587,1.175-.927s.4-2.442.526-3.4S14.02-.27,14.3-.3s1.144,2.195,2.04,3.4c.927,1.237,2.04,2.288,2.257,3a8.218,8.218,0,0,0,1.979,2.38A38.136,38.136,0,0,1,25.4,14.322c1.36,2.226,4.2,7.141,5.348,7.791s7.079,2.473,8.656,3.03A19.486,19.486,0,0,0,42.988,26.317Z" transform="translate(94.976 91.67)" fill="rgba(6,178,187,0.6)"/>
  <line id="Line_6" data-name="Line 6" x2="64.72" transform="translate(117.713 112.784)" fill="none" stroke="rgba(6,178,187,0.6)" stroke-width="1" stroke-dasharray="3 1"/>
  <line id="Line_7" data-name="Line 7" y1="25.698" transform="translate(122.516 87.086)" fill="none" stroke="rgba(6,178,187,0.6)" stroke-width="1" stroke-dasharray="3 1"/>
  <g id="Group_42" data-name="Group 42" transform="translate(16.545 94.09)">
    <line id="Line_11" data-name="Line 11" x1="27.481" transform="translate(0 76.751)" fill="none" stroke="#8dbfac" stroke-width="1"/>
    <line id="Line_12" data-name="Line 12" x1="10.469" transform="translate(17.011 69.137)" fill="none" stroke="#8dbfac" stroke-width="1"/>
    <line id="Line_13" data-name="Line 13" x1="10.469" transform="translate(17.011 61.008)" fill="none" stroke="#8dbfac" stroke-width="1"/>
    <line id="Line_14" data-name="Line 14" x1="10.469" transform="translate(17.011 54.12)" fill="none" stroke="#8dbfac" stroke-width="1"/>
    <line id="Line_15" data-name="Line 15" x1="10.469" transform="translate(17.011 46.248)" fill="none" stroke="#8dbfac" stroke-width="1"/>
    <line id="Line_16" data-name="Line 16" x1="27.481" transform="translate(0 38.376)" fill="none" stroke="#8dbfac" stroke-width="1"/>
    <line id="Line_17" data-name="Line 17" x1="10.469" transform="translate(17.011 30.504)" fill="none" stroke="#8dbfac" stroke-width="1"/>
    <line id="Line_18" data-name="Line 18" x1="10.469" transform="translate(17.011 22.632)" fill="none" stroke="#8dbfac" stroke-width="1"/>
    <line id="Line_19" data-name="Line 19" x1="10.469" transform="translate(17.011 15.744)" fill="none" stroke="#8dbfac" stroke-width="1"/>
    <line id="Line_20" data-name="Line 20" x1="10.469" transform="translate(17.011 7.614)" fill="none" stroke="#8dbfac" stroke-width="1"/>
    <line id="Line_21" data-name="Line 21" x1="27.481" fill="none" stroke="#8dbfac" stroke-width="1"/>
  </g>
  <text id="_0" data-name="0" transform="translate(10.566 167.655)" fill="rgba(6,178,187,0.6)" font-size="3" font-family="Montserrat-Medium, Montserrat" font-weight="500"><tspan x="-2.001" y="0">0</tspan></text>
  <text id="_50" data-name="50" transform="translate(8.807 131.536)" fill="rgba(6,178,187,0.6)" font-size="4" font-family="Montserrat-Medium, Montserrat" font-weight="500"><tspan x="-4.964" y="0">50</tspan></text>
  <text id="_100" data-name="100" transform="translate(7 93.466)" fill="rgba(6,178,187,0.6)" font-size="4" font-family="Montserrat-Medium, Montserrat" font-weight="500"><tspan x="-6.816" y="0">100</tspan></text>
  <text id="Height_at_withers" data-name="Height
at withers" transform="translate(127.536 98.224)" fill="rgba(6,178,187,0.6)" font-size="4" font-family="Montserrat-Medium, Montserrat" font-weight="500"><tspan x="0" y="0">Height</tspan><tspan x="0" y="4">at withers</tspan></text>
</svg>
