<?xml version="1.0" encoding="utf-8"?>
<!-- Generator: Adobe Illustrator 25.1.0, SVG Export Plug-In . SVG Version: 6.00 Build 0)  -->
<svg version="1.1" id="Group_1" xmlns="http://www.w3.org/2000/svg" xmlns:xlink="http://www.w3.org/1999/xlink" x="0px" y="0px"
	 width="141.8px" height="33.3px" viewBox="0 0 141.8 33.3" style="enable-background:new 0 0 141.8 33.3;" xml:space="preserve">
<style type="text/css">
	.st0{fill:#FFFFFF;}
</style>
<path id="Path_1" class="st0" d="M46.6,13.4c0.9,0.3,2-0.5,2.4-1.7c0.5-1,0.1-2.2-0.9-2.8c-0.9-0.3-2,0.5-2.4,1.7
	S45.7,13.2,46.6,13.4z"/>
<path id="Path_2" class="st0" d="M44,13.5c0.8-0.2,1.2-1.5,0.8-2.8c-0.4-1.3-1.5-2.1-2.3-1.8c-0.8,0.2-1.2,1.5-0.8,2.8
	C42.1,13,43.2,13.8,44,13.5z"/>
<path id="Path_3" class="st0" d="M41.8,13.8c-0.4-1.2-1.4-2-2.2-1.7s-1.2,1.4-0.8,2.6s1.4,2,2.2,1.7C41.9,16.2,42.2,15,41.8,13.8z"
	/>
<path id="Path_4" class="st0" d="M45.4,13.8h-0.2c-2.1,0.4-3.6,2.4-3.5,4.6c0,2.4,2,1.4,2,1.4c0.4-0.4,0.9-0.7,1.5-0.8h0.2
	c0.6,0.1,1.1,0.4,1.5,0.8c0,0,2,1,2-1.3C49,16.2,47.5,14.2,45.4,13.8z"/>
<path id="Path_5" class="st0" d="M51,12.2c-0.8-0.3-1.8,0.5-2.2,1.6c-0.4,1.2,0,2.3,0.8,2.6s1.8-0.5,2.2-1.6
	C52.1,13.6,51.8,12.4,51,12.2z"/>
<path id="Path_6" class="st0" d="M62.7,28.9l-0.1-0.2L59.3,32l0.1,0.1l0.8,0.9c0.6,0.6,1.8,0.3,2.6-0.6c0.9-0.9,1.2-2.1,0.6-2.6
	L62.7,28.9z"/>
<path id="Path_7" class="st0" d="M55.7,21.9c4.2-5.7,3-13.8-2.7-18.1s-13.8-3-18.1,2.7c-4.2,5.7-3,13.8,2.7,18.1
	c4.3,3.2,10.2,3.4,14.7,0.5l6.2,6.2l3.3-3.2L55.7,21.9z M45.3,23.6c-5.1,0-9.2-4.1-9.2-9.2s4.1-9.2,9.2-9.2c5.1,0,9.2,4.1,9.2,9.2v0
	C54.5,19.4,50.4,23.6,45.3,23.6z"/>
<path id="Path_8" class="st0" d="M16.4,1.6c-1.7-0.7-3.6-1.1-5.5-1H0v22.6h7.6v-5.6h3.3c1.9,0,3.7-0.3,5.4-1c1.5-0.6,2.7-1.6,3.6-3
	c0.9-1.4,1.3-2.9,1.2-4.5c0-1.6-0.4-3.2-1.2-4.5C19.1,3.2,17.8,2.2,16.4,1.6z M12.7,11c-0.7,0.5-1.5,0.8-2.3,0.7H7.6V6.4h2.8
	c0.8-0.1,1.7,0.2,2.3,0.7c0.5,0.5,0.8,1.2,0.8,2C13.5,9.8,13.2,10.5,12.7,11L12.7,11z"/>
<path id="Path_9" class="st0" d="M100.5,0.5H82.9v22.6h18.8v-5.7H90.3v-3h9.6V8.9h-9.6V6.3H107l0,0.2v16.7h7.6V6.4h6.6V0.5H100.5z"
	/>
<path id="Path_10" class="st0" d="M140.6,12.2c-0.8-0.9-1.9-1.6-3.1-2c-1.4-0.5-2.9-0.9-4.4-1.1c-1-0.2-1.9-0.4-2.9-0.7
	c-0.6-0.2-0.9-0.6-0.9-1c0-1,1-1.4,2.9-1.4c2.2,0.1,4.3,0.6,6.3,1.7l2.3-5.5c-1.2-0.7-2.6-1.2-4-1.5c-1.5-0.4-3-0.5-4.5-0.5
	c-2-0.1-3.9,0.3-5.8,1c-1.4,0.6-2.7,1.5-3.6,2.8c-0.8,1.1-1.2,2.5-1.2,3.9c-0.1,1.4,0.4,2.8,1.3,3.9c0.8,0.9,1.9,1.6,3,2.1
	c1.4,0.5,2.9,0.9,4.4,1.2c1,0.2,2,0.4,2.9,0.8c0.6,0.2,0.9,0.6,0.9,1.1c0,0.4-0.3,0.8-0.7,0.9c-0.7,0.3-1.5,0.4-2.3,0.3
	c-1.3,0-2.6-0.2-3.8-0.6c-1.3-0.3-2.5-0.8-3.6-1.5l-2.4,5.6c1.3,0.8,2.8,1.4,4.4,1.7c1.8,0.4,3.6,0.6,5.5,0.6c2,0.1,3.9-0.3,5.8-1
	c1.4-0.6,2.7-1.5,3.6-2.8c0.8-1.1,1.2-2.5,1.2-3.9C141.9,14.6,141.5,13.2,140.6,12.2z"/>
<path id="Path_11" class="st0" d="M30.1,6.1c-1,0.4-1.8,1.1-2.4,1.9V5.8h-4.8v17.4h5v-8.2c-0.1-1.3,0.3-2.6,1.2-3.6
	c0.5-0.5,1.2-0.9,2-1c0.5-1.7,1.3-3.3,2.4-4.7C32.4,5.5,31.2,5.7,30.1,6.1z"/>
<path id="Path_12" class="st0" d="M75.5,1.6c-1.7-0.7-3.6-1.1-5.4-1H59.2v8.6c0.6,1.7,0.9,3.4,0.9,5.2c0,1.8-0.3,3.5-0.9,5.2v3.6
	h7.6v-5.5h3.3c1.9,0,3.7-0.3,5.4-1c3-1.2,5-4.2,4.9-7.5c0-1.6-0.4-3.2-1.3-4.5C78.2,3.2,77,2.2,75.5,1.6z M71.9,11
	c-0.7,0.5-1.5,0.8-2.3,0.7h-2.8V6.4h2.8c0.8-0.1,1.7,0.2,2.3,0.7c0.5,0.5,0.8,1.2,0.8,2C72.7,9.8,72.4,10.5,71.9,11L71.9,11z"/>
</svg>
